<?xml version="1.0" encoding="iso-8859-1"?>
<!-- Generator: Adobe Illustrator 19.0.0, SVG Export Plug-In . SVG Version: 6.00 Build 0)  -->
<svg version="1.1" id="Layer_1" xmlns="http://www.w3.org/2000/svg" xmlns:xlink="http://www.w3.org/1999/xlink" x="0px" y="0px"
	 viewBox="0 0 496.8 496.8" style="enable-background:new 0 0 496.8 496.8;" xml:space="preserve">
<path style="fill:#19BF55;" d="M496,224c0-7.2-4.8-13.6-12-15.2l-45.6-11.2l33.6-32.8c5.6-4.8,6.4-12.8,2.4-19.2l-24-41.6
	c-4-6.4-11.2-9.6-18.4-7.2l-45.6,12.8L400,63.2c1.6-7.2-0.8-14.4-7.2-18.4l-41.6-24c-6.4-4-14.4-2.4-19.2,2.4l-32.8,33.6L288,11.2
	C285.6,4.8,279.2,0,272,0h-48c-7.2,0-13.6,4.8-15.2,12l-11.2,45.6L164,24c-4.8-5.6-12.8-6.4-19.2-2.4l-41.6,24
	C96.8,48.8,93.6,56,96,63.2l12.8,45.6L63.2,96c-7.2-1.6-14.4,0.8-18.4,7.2l-24,41.6c-4,6.4-2.4,14.4,2.4,19.2l33.6,32.8L11.2,208
	C4.8,210.4,0,216.8,0,224v48c0,7.2,4.8,13.6,12,15.2l45.6,11.2L24,332c-5.6,4.8-6.4,12.8-2.4,19.2l24,41.6
	c3.2,6.4,10.4,9.6,17.6,7.2l45.6-12.8L96,432.8c-1.6,7.2,0.8,14.4,7.2,18.4l41.6,24c6.4,4,14.4,2.4,19.2-2.4l32.8-33.6l11.2,45.6
	c1.6,7.2,8,12,15.2,12h48c7.2,0,13.6-4.8,15.2-12l11.2-45.6l32.8,33.6c4.8,5.6,12.8,6.4,19.2,2.4l41.6-24c6.4-4,9.6-11.2,7.2-18.4
	l-12.8-45.6l45.6,12.8c7.2,1.6,14.4-0.8,18.4-7.2l24-41.6c4-6.4,2.4-14.4-2.4-19.2l-33.6-32.8l45.6-11.2c7.2-1.6,12-8,12-15.2
	L496,224z"/>
<g>
	<path style="fill:#10AF58;" d="M400,432.8l-12.8-45.6l45.6,12.8c7.2,1.6,14.4-0.8,18.4-7.2l5.6-9.6L299.2,308l-114.4,32L296,451.2
		l3.2-12.8L332,472c4.8,5.6,12.8,6.4,19.2,2.4l41.6-24C399.2,447.2,402.4,440,400,432.8z"/>
	<path style="fill:#10AF58;" d="M108.8,108.8L108.8,108.8l278.4,278.4l0,0l45.6,12.8c7.2,1.6,14.4-0.8,18.4-7.2l24-41.6
		c4-6.4,2.4-14.4-2.4-19.2l-33.6-32.8l45.6-11.2c7.2-1.6,12-8,12-15.2v-48c0-7.2-4.8-13.6-12-15.2l-45.6-11.2l33.6-32.8
		c5.6-4.8,6.4-12.8,2.4-19.2l-24-41.6c-4-6.4-11.2-9.6-18.4-7.2l-45.6,12.8L400,63.2c1.6-7.2-0.8-14.4-7.2-18.4l-41.6-24
		c-6.4-4-14.4-2.4-19.2,2.4l-32.8,33.6L288,11.2C285.6,4.8,279.2,0,272,0h-48c-7.2,0-13.6,4.8-15.2,12l-11.2,45.6L164,24
		c-4.8-5.6-12.8-6.4-19.2-2.4l-41.6,24C96.8,48.8,93.6,56,96,63.2L108.8,108.8z"/>
</g>
<path style="fill:#0C9668;" d="M268.8,232c-27.2-11.2-35.2-18.4-35.2-30.4c0-9.6,7.2-20.8,27.2-20.8c19.2,0,32,7.2,36.8,10.4
	c1.6,0.8,4,1.6,6.4,0.8s4-2.4,4-4l8-21.6c1.6-3.2-1.6-7.2-4-8.8c-11.2-6.4-23.2-10.4-39.2-12V116c0-4-0.8-4-4.8-4h-20
	c-4,0-7.2,5.6-7.2,9.6V148c-32,7.2-48.8,29.6-48.8,57.6c0,35.2,28,51.2,57.6,62.4c22.4,8.8,32,18.4,32,32c0,14.4-12.8,24-31.2,24
	c-15.2,0-30.4-4.8-42.4-12.8c-1.6-1.6-4-1.6-6.4-0.8c-2.4,0.8-4,2.4-4.8,4.8l-8,21.6c-0.8,3.2,1.6,6.4,4,8.8
	c11.2,8,23.2,13.6,47.2,15.2V388c0,4,0.8,4,4.8,4h22.4c4,0,4.8-0.8,4.8-4.8v-28.8c32-7.2,51.2-31.2,51.2-60.8
	C323.2,267.2,307.2,248,268.8,232z"/>
<path style="fill:#FFFFFF;" d="M260.8,226.4c-27.2-11.2-35.2-18.4-35.2-30.4c0-9.6,7.2-20.8,27.2-20.8c19.2,0,32,7.2,36.8,10.4
	c1.6,0.8,4,1.6,6.4,0.8s4-2.4,4-4l8-21.6c1.6-3.2-1.6-7.2-4.8-8.8c-11.2-6.4-24-10.4-40-12v-23.2c0-4-0.8-4.8-4.8-4.8h-20
	c-4,0-7.2-0.8-7.2,3.2v26.4c-32,7.2-48.8,29.6-48.8,57.6c0,35.2,28,51.2,57.6,62.4c22.4,8.8,32,18.4,32,32c0,14.4-12.8,24-31.2,24
	c-15.2,0-30.4-4.8-42.4-12.8c-1.6-1.6-4-1.6-6.4-0.8s-4,2.4-4.8,4.8l-8,21.6c-0.8,3.2,0.8,6.4,4,8.8c11.2,8,31.2,13.6,47.2,15.2
	v24.8c0,4,0.8,4,4.8,4h21.6c4,0,5.6-0.8,5.6-4.8V352c32-7.2,51.2-31.2,51.2-60.8C315.2,261.6,299.2,241.6,260.8,226.4z"/>
<path style="fill:#CEE8EF;" d="M316,292c0-30.4-16-50.4-54.4-65.6c-27.2-11.2-35.2-18.4-35.2-30.4c0-9.6,7.2-20.8,27.2-20.8
	c19.2,0,32,7.2,36.8,10.4c1.6,0.8,4,1.6,6.4,0.8s4-2.4,4-4l8-21.6c1.6-3.2-1.6-7.2-4.8-8.8c-11.2-6.4-24-10.4-40-12v-23.2
	c0-4-0.8-4.8-4.8-4.8H236c-4,0-4,0.8-4,4.8v25.6c-24,5.6-40.8,18.4-47.2,43.2L312,312C314.4,305.6,316,299.2,316,292z"/>
<g>
</g>
<g>
</g>
<g>
</g>
<g>
</g>
<g>
</g>
<g>
</g>
<g>
</g>
<g>
</g>
<g>
</g>
<g>
</g>
<g>
</g>
<g>
</g>
<g>
</g>
<g>
</g>
<g>
</g>
</svg>
