<?xml version="1.0" standalone="no"?><!DOCTYPE svg PUBLIC "-//W3C//DTD SVG 1.1//EN" "http://www.w3.org/Graphics/SVG/1.1/DTD/svg11.dtd"><svg t="1488454649380" class="icon" style="" viewBox="0 0 1024 1024" version="1.1" xmlns="http://www.w3.org/2000/svg" p-id="3308" xmlns:xlink="http://www.w3.org/1999/xlink" width="200" height="200"><defs><style type="text/css"></style></defs><path d="M511.033487 64.364937c-245.488087 0-444.493513 199.004403-444.493513 444.49556 0 245.485017 199.004403 444.491467 444.493513 444.491467 245.490134 0 444.48942-199.007473 444.48942-444.491467C955.522907 263.36934 756.523621 64.364937 511.033487 64.364937zM704.919313 482.985176 704.919313 543.818683 555.590286 543.818683l0 83.845617 149.329027 0 0 61.60815L555.587216 689.272449l0 122.060987-76.818573 0L478.768643 689.271426l-154.815995 0 0-61.60815 154.815995 0L478.768643 543.818683l-154.815995 0 0-60.833507 132.083248 0L294.950104 207.6759l86.61673 0c75.252915 136.747477 120.975259 223.444025 137.180336 260.101923l1.568728 0c5.485945-15.071254 20.507056-45.491077 45.074591-91.252307l92.101651-168.848593 81.918731 0-162.65452 275.309276L704.919313 482.986199z" p-id="3309" fill="#f5ea12"></path></svg>