<?xml version="1.0" standalone="no"?><!DOCTYPE svg PUBLIC "-//W3C//DTD SVG 1.1//EN" "http://www.w3.org/Graphics/SVG/1.1/DTD/svg11.dtd"><svg t="1488439277934" class="icon" style="" viewBox="0 0 4096 1024" version="1.1" xmlns="http://www.w3.org/2000/svg" p-id="2603" xmlns:xlink="http://www.w3.org/1999/xlink" width="800" height="200"><defs><style type="text/css"></style></defs><path d="M285.3888 295.8848l0 125.4912C295.0656 418.0992 302.592 415.5904 307.9168 413.9008l26.9824-8.4992 26.5216-9.0112C366.08 394.752 369.408 395.4688 371.4048 398.6432S370.5856 406.4256 362.9056 412.416l-22.016 18.0224L309.4016 455.8848 285.3888 475.392l0 397.0048c0 22.3232-2.5088 37.3248-7.4752 45.0048s-15.8208 15.3088-32.512 22.9888-39.168 12.4928-67.4816 14.4896c-8.3456 0.6656-13.4144-0.0512-15.2576-2.2528s-2.9184-9.0112-3.2256-20.48-5.9392-22.5792-16.7424-33.2288-25.088-20.48-42.752-29.4912l-30.0032-15.0016c-5.9904-2.6624-8.2432-5.7344-6.7584-9.2672s5.7344-4.9152 12.7488-4.2496l35.9936 4.5056c35.6864 4.6592 56.064 3.6864 61.2352-3.0208s7.7312-15.9744 7.7312-28.0064l0-267.52-75.008 55.5008-9.0112 7.4752c-5.6832 1.9968-10.1888-1.024-13.5168-9.0112L38.912 499.4048 35.8912 493.4144c0-1.3312 0.256-2.56 0.768-3.7376s5.5808-2.9184 15.2576-5.2736l31.488-7.4752c19.3024-4.6592 51.8144-13.6704 97.4848-26.9824L180.8896 295.8848 110.3872 295.8848 69.888 298.9056 45.8752 271.9232 101.376 276.4288l79.5136 0L180.8896 174.8992 174.8992 56.8832C177.5616 53.248 181.9136 51.5584 187.904 51.9168c37.3248 4.3008 62.9248 7.424 76.7488 9.2672S290.304 66.0992 300.1344 70.4s14.848 8.2432 15.0016 11.7248-0.9216 6.912-3.2256 10.24c-3.0208 3.9936-11.8272 10.8032-26.5216 20.48l0 163.4816L294.4 276.3264c11.3152-18.0224 20.992-32.512 28.9792-43.52s14.592-16.7424 19.7632-17.2544 12.4416 2.9184 21.76 10.24c17.664 14.6944 32.3072 28.2624 43.9808 40.7552s16.6912 20.48 15.0016 24.0128S418.8672 295.8848 413.9008 295.8848L285.3888 295.8848zM600.3712 133.888c-24.32 47.3088-39.68 76.4928-45.9776 87.5008l-35.4816 61.4912 28.0064 22.016 276.0192 0c18.3296-24.6784 32.5632-43.1616 42.752-55.5008s17.408-18.5856 21.76-18.7392 10.1888 2.2528 17.5104 7.2704c10.3424 7.68 21.8112 18.0224 34.5088 30.976l32.512 34.5088c6.3488 7.0144 8.7552 12.1856 7.2704 15.5136s-4.7616 5.0176-9.728 5.0176l-190.5152 0.512c-6.656 7.9872-14.1824 15.0016-22.4768 20.992l0 143.5136 45.9776 0c18.3296-24.6784 32.5632-43.1616 42.752-55.5008s17.408-18.5856 21.76-18.7392 10.1888 2.2528 17.5104 7.2704c12.6976 9.6768 28.5184 24.7296 47.5136 45.2608s27.7504 32.4096 26.2656 35.7376-4.7616 5.0176-9.728 5.0176l-192 0.512 0 171.9808 52.48 0c18.3296-24.6784 32.5632-43.1616 42.752-55.5008s17.408-18.5856 21.76-18.7392 10.1888 2.2528 17.5104 7.2704c10.6496 7.9872 26.0608 22.5792 46.2336 43.7248s29.4912 33.4848 28.0064 37.0176-4.7616 5.2736-9.728 5.2736l-199.0144 0 0 178.9952 79.9744 0.512c18.3296-24.6784 32.5632-43.0592 42.752-55.2448 10.1888-12.1856 17.408-18.3296 21.76-18.4832s10.1888 2.2528 17.5104 7.2704c15.6672 11.3152 32.4096 26.6752 50.2272 45.9776s25.9072 30.7712 24.2688 34.2528-5.0176 5.2736-9.984 5.2736l-449.4848 0 0 37.4784c0 25.344-23.3472 37.8368-69.9904 37.4784-16.9984 0-27.0848-2.2528-30.2592-6.7584s-5.0688-10.752-5.7344-18.7392l5.9904-107.52 0.512-436.992c-29.3376 32.3072-50.4832 54.4768-63.488 66.5088l-20.992 19.5072c-6.656 5.9904-11.5712 7.936-14.7456 5.7344s-3.072-6.0928 0.256-11.7248l18.9952-33.024c21.6576-37.9904 41.984-81.152 60.9792-129.4848s32.3072-87.4496 39.9872-117.248 14.336-59.2384 20.0192-88.2688L481.3824 80.896l1.4848-20.992c1.024-0.6656 2.5088-1.1776 4.5056-1.4848 5.6832-0.6656 26.0096 4.096 60.9792 14.2336s58.0096 17.92 69.0176 23.2448S634.2144 105.472 634.88 108.6464s0.1536 6.2464-1.4848 9.2672C630.0672 123.5968 619.0592 128.9216 600.3712 133.888zM533.4016 488.9088l120.9856 0L654.3872 324.4032l-120.9856 0L533.4016 488.9088zM533.4016 680.3968l120.9856 0L654.3872 508.416l-120.9856 0L533.4016 680.3968zM533.4016 878.3872l120.9856 0L654.3872 699.392l-120.9856 0L533.4016 878.3872zM676.9152 94.4128c17.3056 7.0144 35.4816 15.1552 54.4768 24.5248s36.8128 29.2352 53.504 59.7504 16.2304 56.064-1.2288 76.7488-37.2736 31.232-59.2384 31.744-37.4784-4.9152-46.4896-16.2304-13.312-23.808-13.0048-37.4784c0-3.9936 1.2288-12.8 3.7376-26.5216s3.7376-25.6512 3.7376-35.9936c-0.3072-11.008-1.6896-20.3264-3.9936-28.0064s-5.2736-14.848-8.7552-21.504-7.0144-11.9808-10.496-15.9744-5.4272-8.4992-5.7344-13.5168 5.8368-5.6832 18.4832-1.9968L676.9152 94.4128z" p-id="2604" fill="#2c2c2c"></path><path d="M1073.408 157.9008l67.0208 5.9904 218.5216 0L1358.9504 129.3824l-3.9936-73.0112c1.9968-2.6624 5.4784-3.6864 10.496-3.0208l33.4848 1.4848c3.328 0.3072 17.8176 2.6624 43.52 7.0144s39.68 10.1888 41.984 17.5104c2.304 9.0112-6.656 18.176-26.9824 27.4944l0 56.9856 167.0144 0L1624.4736 130.4064l-4.5056-76.4928c3.0208-1.6896 7.9872-2.1504 15.0016-1.4848l33.024 3.0208c39.68 4.6592 63.232 9.3184 70.7584 13.9776s11.4176 9.3184 11.7248 13.9776-8.6528 12.1856-26.9824 22.4768l0 58.0096 135.9872 0c17.664-24.32 30.8224-42.1888 39.4752-53.504s15.0528-17.408 19.2512-18.2272 11.264 2.7648 21.248 10.752c31.3344 26.3168 51.5584 44.5952 60.7744 54.7328s13.0048 16.9984 11.52 20.48-4.4032 5.2736-8.7552 5.2736L1723.392 183.3984l3.0208 61.4912c0.6656 16.6912-8.7552 27.7504-28.2624 33.2288s-35.584 8.3456-48.2304 8.4992c-12.6976 0.1536-20.5824-1.4336-23.7568-4.7616s-4.5568-8.8064-4.2496-16.4864l2.5088-82.0224-167.0144 0 3.0208 53.504c0 5.6832-2.5088 11.8272-7.4752 18.4832s-14.592 11.9808-28.7744 15.9744-29.5936 6.1952-46.2336 6.5024-24.5248-7.3216-23.5008-22.9888l4.5056-71.4752-205.0048 0-60.9792 3.0208L1073.408 157.9008zM1297.408 334.3872l221.4912 0c-3.0208-1.6896-5.8368-3.84-8.4992-6.5024s-3.9936-9.5232-3.9936-20.48l1.9968-31.488c0-9.0112-1.024-16.9984-3.0208-24.0128-2.6624-6.656-6.1952-12.4928-10.496-17.5104l-11.9808-10.496c-3.6864-3.0208-5.4272-6.3488-5.2736-9.984s4.9152-5.3248 14.2336-5.0176l28.5184 1.4848c19.3024 3.328 35.072 7.2704 47.2576 11.7248s23.9104 13.056 35.2256 25.7536 16.2304 27.2384 14.7456 43.7248-4.5568 26.7264-9.2672 30.7712L1596.416 334.3872l229.0176 0c15.6672-22.9888 27.904-40.192 36.7616-51.5072s15.1552-17.0496 18.9952-17.2544 9.4208 2.9184 16.7424 9.2672c22.9888 20.6848 39.8336 37.0688 50.4832 49.2544s15.0528 20.0192 13.2608 23.5008-6.0928 5.2736-12.7488 5.2736l-220.9792 1.024c-3.328 6.656-5.3248 10.1888-5.9904 10.496l-18.0224 10.496 0 53.504 88.5248 0c17.664-23.6544 30.0032-36.1984 37.0176-37.4784 7.3216-1.3312 21.0944 3.84 41.2672 15.5136s34.5088 20.3264 43.008 26.0096 12.9024 11.3152 13.2608 16.9984-8.6528 14.6944-26.9824 26.9824L1900.032 507.904l3.0208 41.5232c-1.3312 7.68-3.9424 13.6704-7.7312 18.0224s-20.1728 10.5984-48.9984 18.7392-43.264 3.4304-43.264-14.2336l0-13.5168-366.4896 0c33.3312 9.6768 52.48 16.3328 57.4976 20.0192s7.168 7.936 6.5024 12.7488-7.4752 9.4208-20.48 13.7728l-9.0112 28.5184 254.0032 0c15.9744-18.9952 27.7504-32.5632 35.2256-40.7552s12.8-12.4928 15.9744-13.0048 8.0896 1.4336 14.7456 5.7344c4.3008 3.328 13.056 11.3152 26.2656 24.0128s21.76 21.4016 25.7536 26.2656 5.3248 8.9088 3.9936 12.2368-4.6592 5.0176-9.984 5.0176L1466.368 653.0048l-18.0224 62.5152 374.9888 0c15.6672-22.016 26.0608-33.7408 31.232-35.2256s12.2368-0.256 21.248 3.7376c18.9952 9.3184 36.4032 19.5584 52.2752 30.7712s23.9104 18.432 24.2688 21.76c0.3072 7.3216-8.6528 16.8448-26.9824 28.5184-3.9936 35.9936-7.168 63.1808-9.5232 81.5104s-4.9152 34.7648-7.7312 49.2544-7.0144 27.4432-12.4928 38.7584-12.5952 20.1728-21.248 26.5216-19.2512 11.4176-31.744 15.2576-22.272 6.0928-29.2352 6.7584l-31.488 1.024c-9.6768 0.6656-15.1552-0.1536-16.4864-2.5088-1.024-1.3312-1.6896-8.0896-1.9968-20.2752s-3.6864-22.5792-9.984-31.232-15.8208-15.9744-28.5184-22.016l-25.4976-11.9808c-5.0176-1.9968-7.0656-4.8128-6.2464-8.4992s5.4272-5.3248 13.7728-5.0176l40.4992 3.0208c19.3024 1.6896 33.1776 1.9456 41.5232 0.768s15.0528-5.0176 20.2752-11.52 9.0624-15.1552 11.7248-26.0096 5.0176-28.7744 7.0144-53.76l4.5056-60.0064-378.0096 0c-9.6768 10.6496-17.5616 19.2-23.7568 25.4976s-11.264 9.8304-15.2576 10.496c-9.984 2.304-22.7328-1.6896-38.2464-11.9808s-26.9824-18.688-34.5088-24.9856-11.1616-11.7248-11.008-16.2304 11.0592-12.7488 32.768-24.7296c8.3456-28.672 13.9264-51.5072 16.7424-68.5056s4.5568-29.8496 5.2736-38.5024l1.4848-26.9824-102.5024-0.512c-1.9968 23.6544-4.3008 49.408-7.0144 77.2608s-7.9872 57.4464-15.9744 88.7296-21.76 65.4848-41.2672 102.5024c-19.5072 37.0176-53.9136 73.984-103.2704 111.0016l-24.0128 18.0224c-7.3216 5.6832-12.5952 7.0656-15.7696 4.2496s-2.4064-7.7312 2.2528-14.7456l22.4768-31.488c14.336-20.0192 28.0576-42.9056 41.2672-68.7616s23.5008-61.7472 30.976-107.7248 11.7248-103.0656 12.7488-171.264 0.6656-118.5792-1.024-151.2448l-4.5056-82.0224-4.5056-48.0256c4.3008-0.6656 11.8272 1.3312 22.4768 5.9904L1297.408 334.3872zM1352.9088 803.8912c3.9936 26.9824 5.2736 50.688 3.7376 71.0144s-8.8064 36.8128-22.016 49.5104-30.0544 18.688-50.7392 18.0224c-17.3056-0.3072-30.1568-4.9152-38.5024-13.7728s-12.5952-19.2512-12.7488-31.232 2.9184-22.016 9.2672-30.0032c4.6592-5.9904 11.6736-11.008 20.992-15.0016l24.0128-9.0112c15.9744-7.0144 25.6-14.9504 28.7744-23.7568 3.1744-8.8064 6.5024-20.0192 9.984-33.4848s7.2704-19.3024 11.264-17.5104 6.8096 5.0688 8.4992 9.728L1352.9088 803.8912zM1285.376 539.392l118.016 0L1403.392 447.8976l-116.48 0L1285.376 539.392zM1286.912 428.3904l116.48 0L1403.392 353.8944l-116.48 0L1286.912 428.3904zM1455.872 793.9072c15.3088 8.6528 29.184 18.5856 41.5232 29.7472 12.3392 11.1616 18.5856 26.2656 18.7392 45.2608s-4.9152 33.5872-15.2576 43.7248-24.0128 14.4384-41.0112 12.7488c-21.3504-1.6896-32.4096-9.1648-33.2288-22.4768s-0.5632-22.9888 0.768-28.9792l4.5056-18.0224c1.3312-7.68 1.9968-16.4864 1.9968-26.5216-0.3072-8.6528-1.4848-15.6672-3.4816-20.992l-5.9904-11.9808c-3.0208-5.3248-3.584-9.5232-1.7408-12.4928s7.424-2.304 16.7424 1.9968L1455.872 793.9072zM1500.8768 428.3904l110.4896 0L1611.3664 353.8944l-88.5248 0c-3.6864 6.656-5.9904 10.1888-7.0144 10.496l-15.0016 8.4992L1500.8256 428.3904zM1500.8768 539.392l110.4896 0L1611.3664 447.8976l-110.4896 0L1500.8768 539.392zM1582.8992 779.9296c15.6672 7.68 30.0544 16.6912 43.264 26.9824 13.1584 10.3424 20.48 24.9344 22.016 43.7248s-2.5088 33.6896-11.9808 44.4928c-9.5232 10.8032-22.7328 16.0768-39.7312 15.7696-12.6976 0-22.0672-3.328-28.2624-9.984s-9.3184-13.4144-9.5232-20.2752 0.512-14.08 1.9968-21.76 2.6624-14.6944 3.4816-20.992 0.5632-13.1584-0.768-20.48c-1.6896-7.68-4.7616-14.7456-9.2672-21.248s-7.3216-12.7488-8.4992-18.7392 4.7616-7.168 17.7664-3.4816L1582.8992 779.9296zM1697.8944 758.8864c11.3152 4.3008 22.0672 9.0624 32.256 14.2336s18.7392 13.4144 25.7536 24.7296 10.1888 22.9888 9.5232 35.0208c-1.024 11.008-5.2736 20.8384-12.7488 29.4912s-18.5856 12.4416-33.2288 11.264-24.32-7.2704-28.9792-18.2272c-1.9968-3.6864-2.6624-11.1616-1.9968-22.4768s0.3072-21.504-1.024-30.5152c-1.9968-11.9808-5.5808-21.1968-10.752-27.4944s-8.8064-12.3392-11.008-18.0224 3.7376-6.5024 17.7664-2.5088L1697.8944 758.8864zM1703.8848 538.4192l99.0208 1.024L1802.9056 447.8976l-99.0208 0L1703.8848 538.4192z" p-id="2605" fill="#2c2c2c"></path><path d="M2375.3728 163.8912 2375.3728 124.928l-4.5056-83.5072c3.328-3.0208 8.8576-3.9936 16.4864-3.0208l28.0064 3.0208c66.3552 7.68 99.328 17.664 99.0208 30.0032-0.6656 8.3456-11.1616 19.2-31.488 32.512l0 60.0064 149.504 0L2632.3968 133.888l-4.5056-84.992c3.6352-1.6896 9.1648-2.1504 16.4864-1.4848 33.024 3.328 62.6688 7.0144 88.9856 11.008s39.4752 11.3152 39.4752 22.016c-0.3584 7.9872-10.3424 18.4832-30.0032 31.488l0 52.0192 116.0192 0c7.0144-9.6768 12.3392-16.9984 15.9744-22.016l24.9856-33.024c10.6496-14.6944 19.1488-22.016 25.4976-22.016 4.352 0.3072 11.3664 4.6592 20.992 13.0048l30.0032 25.4976c10.6496 9.3184 20.992 19.2 30.976 29.4912s14.08 17.664 12.2368 22.016-7.7312 6.5024-17.7664 6.5024l-259.0208 0 0 13.5168 3.0208 44.4928c-1.3312 7.9872-4.608 14.848-9.728 20.48s-22.1696 10.496-50.9952 14.4896-45.3632 3.328-49.5104-1.9968-6.7584-10.3424-7.7312-15.0016l4.5056-58.0096L2632.2944 183.3984l-149.504 0 0 30.0032 3.0208 41.5232c-1.024 8.6528-3.4816 15.1552-7.4752 19.5072S2464.768 283.2384 2449.408 287.8976s-31.488 6.1952-48.4864 4.5056c-13.0048-1.024-21.0944-3.7376-24.2688-8.2432s-5.12-9.728-5.7344-15.7696l4.5056-50.4832L2375.424 183.3984l-214.016 0-43.52 3.0208-24.9856-28.5184 64 5.9904L2375.3728 163.8912zM2113.3824 639.3856l64.512 5.9904 333.5168 0 0-24.0128-4.5056-67.4816c3.9936-1.6896 11.008-2.1504 20.992-1.4848 55.6544 5.3248 89.9072 10.9056 102.7584 16.7424s19.4048 11.264 19.7632 16.2304c0 7.68-10.496 17.152-31.488 28.5184l0 31.488 207.9744 0.512c39.0144-55.6544 62.3616-83.5072 69.9904-83.5072 4.6592 0.3072 12.6464 5.3248 24.0128 15.0016l35.9936 30.0032c8.3456 7.3216 18.1248 16.6912 29.2352 28.0064s15.872 19.2512 13.9776 23.7568-7.7312 6.5536-17.7664 6.2464l-331.9808-0.512c43.9808 56.6784 92.416 97.4336 145.2544 122.2656s97.024 40.5504 132.5056 47.2576 57.3952 10.1888 65.7408 10.496l25.4976 1.4848c8.6528 0.6656 13.7728 3.4304 15.2576 8.2432s-1.0752 8.0896-7.7312 9.728l-16.4864 4.5056c-23.6544 6.656-41.1136 16.4352-52.2752 29.2352s-18.7392 23.2448-22.7328 31.232-7.4752 16.4864-10.496 25.4976-5.632 14.6944-7.9872 16.9984-8.4992 1.024-18.4832-3.9936c-26.6752-12.3392-55.2448-29.5936-85.76-51.7632s-55.1424-43.1616-73.984-62.976-37.8368-45.056-56.9856-75.7248-31.5904-55.808-37.2736-75.52l-11.9808-37.0176L2618.88 664.832l0 199.4752 4.5056 79.5136c-0.6656 11.6736-2.8672 19.8144-6.5024 24.5248s-12.3904 8.4992-26.2656 11.52-25.7536 4.8128-35.7376 5.4784c-11.6736 1.024-21.4016 0.1536-29.2352-2.5088s-12.8512-5.9904-15.0016-9.984-3.3792-8.6528-3.7376-13.9776l4.5056-82.4832 0-126.5152c-72.6528 59.3408-136.6528 105.0624-192 137.2672s-92.0064 52.4288-109.9776 60.7744-28.5184 13.312-31.488 15.0016l-18.0224 9.5232c-7.0144 3.9936-13.0048 5.9392-18.0224 5.7344s-8.3968-1.4848-10.24-3.9936 4.608-9.0624 19.2512-19.7632l10.496-7.4752c30.6688-22.016 69.0176-55.3472 114.9952-99.9936 45.9776-44.6976 96.8704-105.3184 152.5248-182.016l-246.4768 0-43.52 3.0208L2113.3824 639.3856zM2192.896 358.4l30.0032-1.4848c71.3728-3.328 159.744-13.312 265.2672-30.0032s176.9984-30.2592 214.4768-40.7552 58.88-16.9472 64.256-19.2512l24.0128-10.496 15.5136-7.0144c3.6352 0 9.0112 2.304 15.9744 7.0144 9.984 7.3216 24.2688 18.4832 42.752 33.4848s35.0208 28.672 49.5104 41.0112 20.5824 20.48 18.2272 24.5248c-2.6624 3.9936-9.1648 5.9904-19.5072 5.9904l-30.0032 0c-15.36 0-63.744 2.56-145.2544 7.7312s-183.5008 8.2432-306.0224 9.2672-193.7408 0.8192-213.76-0.512l-24.0128-1.4848-15.0016 0c-9.6256-1.6896-14.1312-4.6592-13.5168-9.0112C2166.2208 362.3936 2175.232 359.424 2192.896 358.4zM2278.4 440.4224l-7.9872-9.0112-7.4752-7.4752c-5.9904-8.6528-3.0208-13.1584 9.0112-13.5168 10.3424 0 21.8624 2.0992 34.5088 6.2464s33.8944 14.08 63.744 29.7472 44.8512 38.3488 45.0048 67.9936-5.5808 51.2512-17.2544 64.768-26.6752 20.6848-45.0048 21.504-32.1536-3.584-41.5232-13.2608c-7.3728-7.0144-11.7248-15.2576-13.2608-24.7296s-2.1504-20.0704-1.9968-31.744 0.256-20.6848 0.256-26.9824c-0.6656-15.0016-2.7648-28.0064-6.2464-39.0144S2282.752 445.7472 2278.4 440.4224zM2511.872 417.8944l-11.008-15.0016-5.9904-5.9904c-3.6352-4.6592-4.5056-8.2432-2.5088-10.752s6.3488-3.4304 13.0048-2.7648c21.3504 3.0208 43.1104 9.3184 65.2288 18.9952s39.5776 22.4256 52.2752 38.2464 18.5856 32.1536 17.7664 48.9984-7.6288 31.3344-20.48 43.52-27.7504 18.0736-44.7488 17.7664c-18.3296 0-31.232-4.6592-38.7584-13.9776s-11.7248-18.9952-12.7488-28.9792l3.0208-41.984C2527.232 448.2048 2522.2656 432.2304 2511.872 417.8944zM2878.8736 486.912c-35.9936 22.3232-69.888 42.9056-101.7344 61.7472s-49.2544 29.0816-52.2752 30.7712l-16.4864 10.496c-6.3488 3.9936-10.9056 6.3488-13.7728 7.0144s-5.12-0.4096-6.7584-3.2256-1.3312-6.0928 1.024-9.728l9.5232-10.496 7.0144-10.496c1.024-1.6896 7.7312-11.3152 20.2752-28.9792s24.832-37.9392 37.0176-60.7744 20.2752-38.7584 24.2688-47.7696l8.4992-19.5072c3.9936-9.3184 6.7584-14.4384 8.2432-15.2576s5.7344 0.256 12.7488 3.2256c60.3648 28.672 94.976 48.9984 103.9872 60.9792s13.1584 19.6608 12.4928 22.9888C2930.5344 486.6048 2912.5632 489.5744 2878.8736 486.912z" p-id="2606" fill="#2c2c2c"></path><path d="M3406.8992 239.4112c17.664-18.9952 31.1296-33.9456 40.4992-44.7488s16.2304-16.4352 20.736-16.7424 11.8784 4.6592 22.272 15.0016c19.6608 20.0192 35.6352 37.3248 48.0256 52.0192l62.5152 5.0176 170.496 0c19.6608-45.6704 31.1296-73.6768 34.5088-84.0192s9.5232-31.3344 18.4832-62.976l4.5056-15.9744 1.4848-20.992c1.3312-1.3312 3.328-2.304 5.9904-3.0208 3.328-0.3072 10.8544 1.1776 22.4768 4.5056s27.4944 9.4208 47.5136 18.2272 35.4816 15.9744 46.4896 21.504 15.872 11.0592 14.4896 16.7424c-2.6624 9.6768-16.4864 15.5136-41.5232 17.5104-39.3728 42.3424-67.84 69.9904-85.504 82.9952l-33.024 25.4976 99.9936 0c16.9984-21.3504 29.8496-37.0176 38.5024-47.0016s14.8992-15.2576 18.7392-15.7696 11.264 3.9424 22.272 13.2608l25.4976 20.992 20.48 20.992c9.3696 8.6528 13.3632 15.3088 11.9808 20.0192s-5.3248 7.0144-11.9808 7.0144l-144.9984 0c-3.328 5.3248-5.3248 8.192-5.9904 8.4992l-11.52 7.4752L3870.3104 464.896c26.6752-53.3504 43.8272-94.6688 51.5072-124.0064l5.0176-19.5072c3.9936-16.3328 6.912-24.7296 8.7552-25.2416s5.888 0.4096 12.2368 2.7648c15.6672 7.0144 37.0176 18.0736 64 33.2288s39.0144 27.5968 35.9936 37.2736c-2.6624 7.3216-15.9744 13.312-39.9872 18.0224-51.6608 43.9808-97.4848 80.8448-137.5232 110.4896l0 39.0144 52.0192 0c18.3296-20.3264 32.3584-35.7376 41.984-46.2336s16.8448-15.7696 21.504-15.7696c3.328 0.3072 8.6528 3.4816 15.9744 9.5232l23.5008 19.5072c6.656 6.3488 14.592 14.4896 23.7568 24.5248s12.5952 17.0496 10.24 21.248-7.168 6.2464-14.4896 6.2464l-489.984 0-67.4816 3.4816-22.4768-28.5184 71.9872 5.9904 120.9856 0L3657.8304 269.4144l-48.0256 0L3551.3856 273.408l-17.5104-14.4896-333.5168 0-65.9968 2.5088-15.9744-28.0064 64 5.9904L3406.8992 239.4112zM3205.888 368.896l158.976 0c16.3328-19.6608 28.416-34.304 36.2496-43.9808s13.7728-14.7456 17.7664-15.2576 9.8304 2.4064 17.5104 8.7552c8.3456 7.68 19.0976 18.944 32.256 33.7408s19.3536 24.6784 18.4832 29.4912-5.7344 7.2704-14.7456 7.2704l-249.4976 0-54.016 3.0208-18.0224-28.5184L3205.888 368.896zM3156.8896 494.8992l69.0176 5.9904 124.5184 0c15.6672-18.9952 27.7504-33.5872 36.2496-43.7248s14.8992-15.5136 19.2512-15.9744 11.6736 4.4032 22.016 14.7456c7.9872 8.6528 15.9744 16.9984 24.0128 24.9856s14.3872 14.4896 19.2512 19.5072 6.5024 9.5744 5.0176 13.7728-6.4 6.2464-14.7456 6.2464l-229.4784 0-55.5008 3.0208L3156.8896 494.8992zM3261.3888 866.4064l0 50.9952c0 11.9808-1.0752 20.48-3.2256 25.4976s-8.3456 9.984-18.4832 15.0016-22.016 8.0896-35.4816 9.2672-22.4256-0.4096-26.7264-4.7616-7.168-10.8032-8.4992-19.5072l4.5056-85.504 0-186.9824-5.4784-88.9856c1.6384-2.304 3.328-3.84 5.0176-4.5056l13.5168 9.0112 79.5136 52.48 74.496 0c8.3456-12.6976 15.1552-22.9376 20.48-30.7712s10.3424-12.5952 15.0016-14.2336 13.5168 0.3072 26.5216 5.9904c14.336 7.0144 29.9008 15.7696 46.7456 26.2656s25.6 18.2272 26.2656 23.2448c1.3312 11.008-8.1408 22.4768-28.5184 34.5088l0 143.0016 5.9904 69.9904c-4.352 15.3088-14.1312 25.4464-29.4912 30.2592s-29.1328 7.3216-41.5232 7.4752-20.48-2.56-24.5248-8.2432-5.9904-13.0048-5.9904-22.016l0-37.4784L3261.3888 866.4064zM3257.3952 71.8848l-9.0112-10.496c-7.6288-8.6528-7.168-13.0048 1.4848-13.0048C3257.9072 48.7424 3276.8 56.1664 3306.6496 70.656s49.3568 31.5904 58.5216 51.2512 13.6192 34.816 13.2608 45.5168c-0.6656 18.3296-7.1168 32.8192-19.2512 43.52s-25.6 16.0768-40.2432 16.2304-26.5216-4.5568-35.4816-14.2336-13.3632-18.432-13.0048-26.2656 1.9968-19.0976 5.0176-33.7408 2.9184-29.2352-0.256-43.7248S3266.048 82.2272 3257.3952 71.8848zM3261.3888 846.8992l90.0096 0L3351.3984 657.408l-90.0096 0.512L3261.3888 846.8992zM3524.4032 323.4304l-7.4752-12.4928c-1.3312-1.6896-0.4096-3.584 2.7648-5.7344s9.4208 0.0512 18.7392 6.7584l43.008 32c31.6416 26.6752 47.616 52.4288 47.7696 77.2608s-5.376 43.5712-16.7424 56.2688-25.4976 18.8416-42.496 18.4832c-14.336 0-25.856-4.6592-34.5088-13.9776s-13.1072-19.5584-13.2608-30.7712 1.0752-20.5824 3.7376-28.2624l9.5232-25.4976c4.6592-15.6672 5.1712-29.8496 1.4848-42.496S3529.0624 331.7248 3524.4032 323.4304zM3662.3872 912.896l0 34.5088c0 24.9856-21.504 37.8368-64.512 38.5024-8.3456 0.3072-14.848-0.5632-19.5072-2.7648s-8.6528-7.0656-11.9808-14.7456l5.9904-85.504 0-205.5168-5.9904-88.5248c1.024-1.9968 2.0992-3.4304 3.2256-4.2496s10.0864 2.56 26.7264 10.24l69.0176 33.024 197.0176 0c5.9904-11.008 11.3664-20.0704 15.9744-27.2384s9.1648-11.4176 13.5168-12.7488 11.008-0.512 20.0192 2.5088c26.6752 10.3424 47.616 21.0944 62.7712 32.256s22.7328 19.4048 22.7328 24.7296c-0.6656 8.3456-11.1616 19.3024-31.488 33.024l0 181.504 5.9904 79.5136c-7.9872 24.6784-24.4224 37.3248-49.2544 37.9904s-39.9872-1.0752-45.5168-5.2736-8.2432-9.5744-8.2432-16.2304L3868.8768 912.896 3662.3872 912.896zM3612.8768 85.4016 3599.872 70.4c-1.6384-1.3312-2.4064-3.072-2.2528-5.2736s2.7648-3.9424 7.7312-5.2736c3.0208-0.6656 7.3728 0.256 13.0048 2.7648s22.8352 7.9872 51.5072 16.4864 47.36 22.9888 56.0128 43.52 12.7488 37.9392 12.2368 52.2752-7.4752 28.3136-20.992 41.984-29.9008 19.2-49.2544 16.4864-31.1296-10.5984-35.4816-23.7568-5.9904-24.576-5.0176-34.2528l3.0208-27.4944c1.024-15.6672-0.512-28.5696-4.5056-38.7584S3617.536 91.0848 3612.8768 85.4016zM3868.8768 762.4192l0-114.9952-206.4896 0 0 114.9952L3868.8768 762.4192zM3662.3872 893.3888l206.4896 0 0-111.9744-206.4896 0L3662.3872 893.3888zM3740.8768 535.9104l47.0016 1.024L3787.8784 269.4144l-28.5184 0c-3.9936 6.656-9.984 12.4928-18.0224 17.5104L3740.8768 535.9104z" p-id="2607" fill="#2c2c2c"></path></svg>