<?xml version="1.0" standalone="no"?><!DOCTYPE svg PUBLIC "-//W3C//DTD SVG 1.1//EN" "http://www.w3.org/Graphics/SVG/1.1/DTD/svg11.dtd"><svg t="1488440280951" class="icon" style="" viewBox="0 0 1024 1024" version="1.1" xmlns="http://www.w3.org/2000/svg" p-id="14528" xmlns:xlink="http://www.w3.org/1999/xlink" width="200" height="200"><defs><style type="text/css"></style></defs><path d="M843.99616 120.5504l69.67808 69.67296-191.67232 191.6672-69.67296-69.67296z" fill="#E0E0E0" p-id="14529"></path><path d="M617.28768 941.02016c-107.73504 107.74016-296.51456 61.88032-441.23136-82.83136-144.7168-144.7168-195.27168-328.8064-82.8416-441.2416C260.84352 249.32352 676.352 144.39936 783.09888 251.15136c114.62656 114.61632 1.8176 522.24512-165.8112 689.8688z" fill="#FF7043" p-id="14530"></path><path d="M69.438794 444.561874a367.86176 234.624 45.001 1 0 520.22601 520.24417 367.86176 234.624 45.001 1 0-520.22601-520.24417Z" fill="#E64A19" p-id="14531"></path><path d="M246.600826 621.717729a117.3248 74.8288 45.001 1 0 165.919428 165.925219 117.3248 74.8288 45.001 1 0-165.919428-165.925219Z" fill="#FFECB3" p-id="14532"></path><path d="M929.47456 181.13024m-69.07904 0a69.07904 69.07904 0 1 0 138.15808 0 69.07904 69.07904 0 1 0-138.15808 0Z" fill="#E0E0E0" p-id="14533"></path><path d="M853.11488 104.7808m-69.08416 0a69.08416 69.08416 0 1 0 138.16832 0 69.08416 69.08416 0 1 0-138.16832 0Z" fill="#E0E0E0" p-id="14534"></path></svg>